<svg xmlns="http://www.w3.org/2000/svg" xmlns:xlink="http://www.w3.org/1999/xlink" viewBox="0 12.5 66 66"><defs><path id="a" d="M58.5 42.7H43.4c-4.1 0-7.5-3.4-7.5-7.5V20c0-4.1 3.4-7.5 7.5-7.5h15.1c4.1 0 7.5 3.4 7.5 7.5v15.1c0 4.2-3.4 7.6-7.5 7.6z"/></defs><clipPath id="b"><use xlink:href="#a" overflow="visible"/></clipPath><g clip-path="url(#b)" fill="#007BDA"><path d="M49.6 24.5c-.1-.2.3-.3.3-.1l.3.6c.6-.8 1.3-1.6 2-2.5-.1-.4-.3-.8-.2-1.2 0-.2.3-.2.3 0 0 .3.1.6.1.9.7-.8 1.3-1.4 2.1-2.1-.2-.4-.4-.9-.4-1.4-.4.3-.9.7-1.4 1.1-3.1 2.6-5.7 5.9-7.4 9.6 0 0 0 .1-.1.1 0 .1 0 .3-.1.4 0 .2-.1.3-.1.5.6-.4 1.3-.8 2-1.1l.6-.9c-.3-.4-.6-.8-.8-1.2-.1-.3.3-.4.3-.2.2.4.4.8.7 1.1.6-.9 1.3-1.8 1.9-2.7.1-.4 0-.6-.1-.9zm-6.4 8.6c-.9 1.4-1.6 2.9-2.4 4.3 2.9-1.8 4.8-4.8 6.4-7.8-1.6.8-2.9 1.9-4 3.5z"/><path d="M50.1 25.4c-.7.9-1.4 1.7-2 2.6.7.8 1.6 1.4 2.5 1.8.6-.8 1.3-1.4 1.8-2.2-.9-.5-1.7-1.3-2.3-2.2zm4.6-5c-.7.7-1.4 1.4-2.1 2.2.4.9 1.2 1.6 2.1 2 .6-.8 1.1-1.7 1.7-2.6-.7-.3-1.3-.9-1.7-1.6z"/><path d="M52.4 22.8c-.7.8-1.4 1.6-2 2.3.6.9 1.4 1.7 2.3 2.2.6-.8 1.3-1.6 1.9-2.5-.4-.1-.8-.4-1.1-.6-.4-.3-.9-.8-1.1-1.4z"/><path d="M33.3 10v39.6h41.5V10H33.3zm17.3 26.6c-1.1 2-2.6 3.8-3.9 5.7-.1.3-.5.1-.4-.2.3-1.7.5-3.3.6-5-.1 0-.3-.1-.3-.3.1-1.1 1.1-2.6 1.7-3.5.7-1 1.8-1.7 2.8-2.3.1-.1.2.1.1.1-.9.8-1.9 1.4-2.5 2.4-.4.8-1.1 1.8-1.4 2.7.1 0 .2.1.2.3-.1 1.6-.3 3.1-.5 4.7 1-1.4 2.1-2.9 3-4.3 1.1-1.8 1-4 1.4-6 0-.1.1-.1.1-.1s.1 0 .1.1v.1c-.1 1.7-.1 3.9-1 5.6zm13.5-21.9c-1.3 3.7-2.8 7.4-5 10.6-1.9 2.7-4.3 5.4-7.4 6.7-.1 0-.1-.1-.1-.1 2.8-2.1 5.3-4.3 7.2-7.2l1.2-2.1c-1.2.4-2.5.2-3.5-.3-.5.9-1.2 1.7-1.8 2.6.8.3 1.7.5 2.3.6-.6.1-1.7-.1-2.5-.3-.6.9-1.2 1.7-1.8 2.5.7.3 1.4.4 2.2.2.1 0 .1.1.1.1-.8.3-1.6.3-2.4-.1-.6.8-1.3 1.5-1.9 2.2.4.1.9.3 1.4.3.1 0 .1.1 0 .1-.6 0-1.1-.1-1.6-.2l-2.4 2.4s-.1 0 0 0l2.3-2.5c-1-.3-1.9-.9-2.6-1.6l-.6.9c.1 0 .1-.1.2-.1 0 0 0-.1.1-.1.2-.3.6 0 .4.3-1.1 1.8-2.1 3.6-3.5 5.3v.1c-.1.4 2.3.2 2.5.2.1 0 .1.1 0 .2-.2.1-.6.1-1.1.2 0 0 .1 0 .1.1.3 1.3.4 2.6.2 3.9 0 .3-.4.3-.4.1-.1-.2-.2-.3-.3-.5-.5 1-.9 2.1-1.3 3.1-.1.3-.4.2-.4-.1 0-.4-.1-.8-.1-1.1-.8 1-1.5 2-2.4 3-.2.2-.4-.1-.4-.3 0-.1.1-.1.1-.2-1.3.9-2.6 1.8-3.9 2.6-.2.1-.4-.1-.3-.3.3-.3.5-.6.7-.9-1.1.7-2.3 1.4-3.4 2.2-.2.1-.4-.1-.3-.3.8-1.3 1.6-2.6 2.5-4-.4.1-.8.2-1.3.2-.2 0-.3-.3-.2-.4.6-.6 1.1-1 1.8-1.4H35c-.2 0-.3-.3-.2-.4.8-.9 1.6-1.6 2.6-2.1-.2-.1-.4-.1-.6-.1-.2-.1-.2-.3-.1-.4.7-.5 1.4-.9 2.1-1.2v-.3c.1-.6 1.4-1 1.8-1.2.3-.1.5.3.3.4-.3.2-1.2.9-1.5.8.3 0 .3.4.1.5-.7.3-1.3.6-1.9 1l.8.2c.3.1.2.4 0 .4-1 .4-1.9 1-2.7 1.8h1.9c.3 0 .3.3.1.4-.7.4-1.3.9-1.9 1.4.4-.1.8-.2 1.1-.4.2-.1.4.1.3.3-.8 1.3-1.6 2.5-2.4 3.8 1.1-.7 2.1-1.3 3.2-1.9.1-.1.3.1.3.2l-.4.8 3.6-2.5c.1-.1.3 0 .3.1.7-.8 1.3-1.6 1.9-2.4.1-.2.3-.1.4.1s.1.4.2.6c.3-.9.7-1.8 1.1-2.6.1-.1.3-.1.3-.1l.3.3c.1-1.1.1-2.1-.1-3.1 0-.1 0-.1.1-.1-.7.1-1.5.1-1.8-.2-1.1 1.3-2.3 2.3-3.8 3.1-.2.1-.4-.1-.3-.3 1.4-2.5 2.6-5.5 4.9-7.4-.1 0-.3-.1-.3-.2-.1-.3.1-.4.1-.6.1-.1.1-.3.2-.3 0-.1-.1-.1 0-.3.2-.4.4-.9.6-1.3-1.4.8-2.8 1.4-4 2.5-1.1 1-1.9 2.1-2.6 3.4 1.2-.3 2.3-.7 3.5-1.1.3-.1.4.3.2.4-1.3.7-2.6 1.1-4 1.4-.3.1-.4-.2-.3-.4.8-1.6 1.9-3.1 3.3-4.2 1.1-.9 2.6-1.9 4.1-2.1 1.7-3.3 4.1-6.1 7-8.4 1.6-1.3 3.3-2.4 5.2-3.3 1.6-.8 3.7-1.9 5.5-1.8-.8.4-1.7.6-2.6.9-1.1.4-2.1.8-3 1.3-1.2.6-2.4 1.4-3.5 2.1.9 2.5 3 3.8 5.7 3.4.1 0 .3.1.3.2 1.3-2.5 2.3-5 3.2-7.6 0-.6.6-.4.5-.1z"/></g><g><defs><path id="c" d="M22.6 42.7H7.5c-4.1 0-7.5-3.4-7.5-7.5V20c0-4.1 3.4-7.5 7.5-7.5h15.1c4.1 0 7.5 3.4 7.5 7.5v15.1c.1 4.2-3.3 7.6-7.5 7.6z"/></defs><clipPath id="d"><use xlink:href="#c" overflow="visible"/></clipPath><g clip-path="url(#d)" fill="#EC4A48"><path d="M10.7 19.3l.4.2c-.1-.3-.1-.6-.3-.9-.4-.8-1.1-.8-1.9-.7-.9.1-1.5.6-2 1.3.6-.3 1.3-.3 2-.3.6.1 1.2.1 1.8.4zm3.8-1.3c.4-.4.8-.8 1.4-1.1.4-.2.9-.3 1.4-.4-.4-.3-.9-.5-1.5-.4-.6.1-1.4.3-1.8.7-.7.6-.4 1.4-.1 2.1.1-.3.3-.6.6-.9z"/><path d="M-11.3 10.6v40.9h51.5V10.6h-51.5zm42 20.1c-.4 2.8-2.5 4.7-5.3 5-2.8.4-5.5-.6-7.2-2.8-1 1.6-3.2 2.5-4.8 1.3-.3 1.4-.9 2.9-1.9 3.9-.9.8-2.1 1.1-3.3 1.4-1.4.3-2.9.4-4.3.3-1.4-.1-2.5-1.1-3.3-2.1-1-1.2-1.7-2.6-1.8-4.1-.1-1.7.4-3.5.9-5.1.6-1.6 1.6-3 2.6-4.4.9-1.3 1.8-2.6 3-3.7.4-.4.7-.7 1.2-.9.1-1.3 1.8-2.1 3-2.3 1.7-.3 2.5 1 2.6 2.6.4.1.8.1 1.3-.1.1-.1.1-.1.2-.1-.9-1.4-.6-3.1 1.1-3.7 1.1-.4 2.9-.4 3.5.8.6.1 1.1.2 1.6.4 2.9 1.1 5.4 3.4 7.7 5.6 1.1 1.1 1.9 1.9 2.6 3.4.6 1.4.8 3 .6 4.6z"/><path d="M14.1 30.5c-.2.4-.2.8-.1 1.2.1.5.5.7 1 .6.4-.1.8-.3 1.1-.2.1 0 .1 0 .1.1.4-.7.8-1.6.1-2.3-.6-.5-1.8-.2-2.2.6zm14.8-2.4c-.2-1.6-.8-2.9-2.3-3.6-1.3-.6-3-.8-4.3-.5-1.4.4-2.5 1.8-3.1 3-.6 1.2-.6 2.6-.2 3.8.9 2.6 4 3.5 6.5 2.8.1 0 .2 0 .3.1.9-.4 1.9-1.1 2.5-1.8.8-1 .7-2.5.6-3.8zM23.8 25c-1.2.3-2.2 1.4-2.8 2.5-.7 1.3-.4 2.6.7 3.6.3.3 0 .9-.4.7-3.5-1.3-1.1-7.9 2.5-6.9v.1zm-13.7 4.8C8.3 28 5.5 27.6 3.3 29c-1.1.7-2 1.7-2.4 3-.5 1.6.3 3.2 1.3 4.4 1.8 2.1 4.5 1.6 6.9 1 .1-.1.3 0 .3.1 2.9-1.6 2.7-5.5.7-7.7zm-4.2-.6c-.7.3-1.4.6-1.9 1.1-.7.7-1 1.2-1 2.2-.1 1.4.4 2.6 1.8 3 .9.3.5 1.6-.4 1.4-1.9-.5-3.3-2.5-2.8-4.5.2-.9 1.1-1.9 1.8-2.5.8-.6 1.6-.9 2.5-.9.1 0 .1.2 0 .2z"/><path d="M29.5 26.4c-1.1-2.7-3.8-4.7-6-6.5-1.8-1.4-4.7-3.5-7.1-2.6-1.9.7-2.3 3.6-4.8 3-.5-.1-.9-.4-1.4-.6-.6-.2-1.4-.2-2.1-.1-1.4.2-2.4 1.3-3.3 2.3-1 1.1-2 2.4-2.8 3.5-.8 1.1-1.4 2.4-1.8 3.7-.5 1.7-.9 3.5-.6 5.2.3 1.4 1.4 2.8 2.5 3.7 1.7 1.4 4.3 1 6.3.6 1.2-.3 2.2-.6 3-1.7.8-1.1 1.1-2.3 1.4-3.6.1-.3.4-.4.6-.2 1.3 1.6 3.5.6 4.3-.9.2-.3.7-.1.6.3 2.2 2.1 5.5 3.2 8.4 2.1 3.5-1.1 4-5.1 2.8-8.2zm-23-5.5c.1-.1.2.1.1.1-1.3 1.6-2.5 3.3-4 4.7 0 0-.1 0 0 0 1-1.8 2.6-3.4 3.9-4.8zm3 16.7c0 .1-.1.3-.3.3C6.7 39 3.4 39 1.5 36.7c-1.6-2.1-2.1-4.5-.4-6.8C2.5 28 4.9 27 7.3 27.4c2.3.4 4.3 2.3 4.8 4.7.5 2.3-.4 4.7-2.6 5.5zm6.8-5.2c.1.1 0 .3-.1.3-.6.6-2.1.7-2.7-.1-.7-.9-.4-2.3.4-3.1.8-.7 2.1-.6 2.8.3.6.9.3 2-.4 2.6zm2-14.5c1.8.6 3.8 1.2 5 2.7 0 0 0 .1 0 0-1.5-1.3-3.1-1.9-5-2.6-.2 0-.1-.2 0-.1zm7.5 16.2c0 .1-.1.2-.1.2-2.3 1.1-5.6 0-7-2.1-1.4-2.2-.9-4.8.7-6.7.9-1 1.8-1.9 3.1-2.1 1.3-.2 2.7 0 3.9.4 2.6 1 3.3 3.6 3.1 6.2-.1 1.9-1.7 3.6-3.7 4.1z"/></g></g><g><defs><path id="e" d="M22.6 78.5H7.5C3.4 78.5 0 75.1 0 71V55.9c0-4.1 3.4-7.5 7.5-7.5h15.1c4.1 0 7.5 3.4 7.5 7.5V71c.1 4.1-3.3 7.5-7.5 7.5z"/></defs><clipPath id="f"><use xlink:href="#e" overflow="visible"/></clipPath><g clip-path="url(#f)" fill="#F7BA00"><path d="M28 65c-1-.9-2.3-1.6-3.6-2.1.2 1 .3 2 .3 3 1.1-.4 2.1-.7 3.3-.9zm-12.6 9.6c1.4.2 2.9.3 4.3.3 1.8-.1 3.6-.4 5.3-1 1.6-.6 3.7-1.6 4.5-3.2.4-.9.4-2 .1-3-2.8.3-5.2 1.6-7.6 3-2.2 1.2-4.4 2.6-6.6 3.9zm.8-22c-.3 0-.5-.1-.8 0-.2 0-.4.1-.5.3-.5.3-.4.5.3.8.3-.1.4.4.1.4h-.1 1.4c.3 0 .7 0 .9-.1.1 0 .1-.1.2-.1.1-.3.1-.6.2-.8-.3-.3-1.5-.4-1.7-.5z"/><path d="M24.7 66.4v.1c0 .3-.4.3-.5.1-1.3.6-2.6 1.3-3.8 2.1-2.7 1.8-5.3 3.6-8.2 5.3.8.2 1.6.4 2.5.5 2.5-1.7 5.2-3.2 7.8-4.7 2.2-1.3 4.5-2.5 7-2.3-.3-.8-.7-1.4-1.3-2-1.1.2-2.3.5-3.5.9zM6.9 64.1s0-.1 0 0c-.1-.3-.6-.3-.6.1 0 .1.1.3.3.3.1-.1.2-.3.3-.4z"/><path d="M-3.8 45.8v35.8h40.2V45.8H-3.8zM30 71c-.8 1.6-2.7 2.6-4.3 3.3-1.9.8-4 1.1-6.2 1.3-4.7.2-9.3-1.3-13.8-2.8-1-.3-2-.6-2.9-1.1-.7-.4-1.3-.9-1.9-1.4-1.4-1.1-2.2-2.7-2.5-4.5-.2-1.4.6-2.4 1.6-3.3 1.1-1.1 2.9-1.4 4.4-1.8h.1c.3-1.7.9-3.3 1.9-4.5 1.6-2.1 4.5-3.7 7.2-3.1.1 0 .1.1 0 .1-2.8.3-5.5 1.1-7.1 3.6-1.4 2.1-2.1 5.4-1.7 7.9.1.4-.4.4-.5.1-.1-1.1-.1-2.3.1-3.5-1.4.2-3.1.5-4.2 1.7-.5.6-1.1 1.2-1.2 1.9-.1.9.4 2.1.8 3 .6 1.3 2.2 2.6 3.5 3.3 1.6.9 3.6 1.4 5.3 1.9 1.1.4 2.3.7 3.4.9 2.7-2.1 5.7-4 8.5-5.8.1-.1.1-.1.3-.1-.6.1-1.1.3-1.6.3-1.8.3-3.6.3-5.4.1-3-.3-6.9-1.1-9.1-3.5-.1-.1 0-.2.1-.1 2.6 1.8 5.8 2.8 8.9 3.1 3.1.3 6.4.2 9.2-1.3.1-.1.3 0 .3.1.3-.2.7-.3 1-.5-.6-4.4-1.1-10.6-5.8-12.3-.1.1-.1.1-.2.3-.3.3-.9.4-1.5.5.8 1.1 1.1 2.7 1.2 4 .2 1.7.2 3.6-.5 5.2 0 .1-.1.1-.1 0 .1-1.5.4-3 .3-4.5-.1-1.5-.4-3.3-1.3-4.6-.1-.1-.1-.1 0-.2-.6-.1-1.1-.1-1.4-.3-.1-.1 0-.1.1-.1h-.3c.1.1 0 .3-.1.3-2 .8-3.9 1.7-5.1 3.5-.5.8-.8 1.6-1.1 2.5-.2.7-.3 1.5-.6 2.2 1.9.6 3.8 1.2 6 1.3 1.5.1 3 .1 4.5-.1 1.4-.2 3.5-.3 4.6-1.4.2-.2.4.1.3.3-.9 1.1-2.8 1.3-4 1.5-1.6.3-3.2.4-4.8.3-3.2-.1-6.8-.9-9.4-2.7-.1-.1-.1-.2.1-.2l2.6.9c-.2-1.7.7-3.8 1.6-5.2 1.2-1.8 3.1-2.9 5.2-3.4-.4-.3-.6-.8-.3-1.3.6-.9 2.2-.6 3-.4.6.2 1.4.7 1.3 1.3 2.2 0 3.7 2.3 4.5 4.1.6 1.5 1 3.1 1.3 4.7 1.9.6 3.9 1.5 5.2 3.3.9 1.4 1.4 3.5.5 5.2zM6 64.2c0-.3.2-.5.4-.5s.4.1.4.3c.1 0 .2 0 .3.1.1.3-.3.6-.6.7-.2 0-.5-.3-.5-.6zm2.4.9c.1-.3.5-.4.8-.3.3.1.4.6.3.9-.3.3-.7.3-1 .1v-.1c-.1-.2-.1-.4-.1-.6z"/><path d="M8.9 65.5c.1 0 .1 0 0 0 .1.1.2 0 .3 0 .1-.1.1-.3 0-.4s-.4-.1-.5.1c-.2.1 0 .3.2.3z"/></g><g><defs><path id="g" d="M58.5 78.5H43.4c-4.1 0-7.5-3.4-7.5-7.5V55.9c0-4.1 3.4-7.5 7.5-7.5h15.1c4.1 0 7.5 3.4 7.5 7.5V71c0 4.1-3.4 7.5-7.5 7.5z"/></defs><clipPath id="h"><use xlink:href="#g" overflow="visible"/></clipPath><g clip-path="url(#h)" fill="#95C01C"><path d="M51.9 54.7c.1 0 .1.1.1.1.5.1 1.1.1 1.3-.4.3-.5-.4-.9-.8-.9-.4-.1-.8.1-.9.6-.1.1 0 .6.3.6zm-3.2-2.2c.1 0 .1.1.1.1h.1c.6 0 1.3 0 1.6-.6.2-.4.1-.8 0-1.2-.4-.9-1.7-1-2.3-.3-.9.7-.5 1.9.5 2z"/><path d="M32.1 45.2v36.5h39.6V45.2H32.1zm21.5 3.1c.4-.4 1-.4 1.4 0 .4.4.4 1.1 0 1.4-.4.4-1 .4-1.4 0-.1-.1-.1-.1-.1-.2-.2-.4-.2-.9.1-1.2zm-6.2 2.5c.4-1 1.8-1.4 2.6-.9.6.4.9 1.3.6 1.9-.3.8-1.1 1-1.9.9 0 .1-.1.1-.1.1-1 0-1.6-1-1.2-2zm6.7 28.7c-3.2.4-6.5-.1-9.2-1.8-.9-.4-1.3-1.3-1.3-2.3.1-1.8 1.5-3.5 2.5-5 1.3-2.1 2.3-4 2.5-6.5.2-2.1-.1-4.3 0-6.4v-.1c-.4-.1-.9-.4-1.2-.8-.5-.6-.5-1.4 0-1.9.8-.9 2.7-1.1 3.9-1.1.1-.6.7-.9 1.3-.8.4.1.9.4 1.1.8 1.1 0 3.2.1 3.6 1.4.3.8-.3 1.4-1 1.8v.1c-1 3-.9 6.5.1 9.5.6 1.6 1.6 3.1 2.3 4.6.6 1.2 1.4 2.6 1.6 4 .2 3.2-4 4.2-6.2 4.5z"/><path d="M53.9 49.4c.3.3.6.2.9 0 .3-.3.3-.7 0-.9-.6-.6-1.4.3-1.1.9h.2zM49 69.1c.9.3 1.7.6 2.6.7.6 0 1.1 0 1.7-.1.3-.1 1.1-.2 1.3-.4.9-1.3-2.6-1.2-3-1.2-.9.1-2.2.3-2.8 1.1h.2v-.1z"/><path d="M55.2 69.3c-.4.5-1.6.7-2 .8-1.3.2-2.8.1-3.9-.6-.1.1-.2.3-.3.2-.1-.1-.3-.1-.4-.1-.1 0-.1-.1-.1-.1-.3 1.6-1.5 2.5-2.2 4-.4.9-.8 1.9.3 2.5.4.3 1 .4 1.5.6 1.1.3 2.1.5 3.3.6 1.9.1 5.6.1 6.5-2.1.5-1.2-.4-2.3-1-3.3-.7-.9-1.2-1.7-1.7-2.5zm-3.4-4.6c.3 0 .5-.2.4-.4-.1-.3-.6-.3-.7-.1.1.2.2.3.3.5z"/><path d="M58.6 72c-1.3-2.6-2.8-4.7-3.3-7.5-.4-2.3-.4-4.8.3-7.2-.8.2-1.6.3-2.1.1-.1 0-.1-.1 0-.1.8-.1 1.5-.1 2.2-.4.1 0 .1-.1.1-.1.1-.1.1-.1.2-.1.6-.3 1.1-1.1.6-1.7-.7-.8-2-.8-3-.7v.1c-.3.8-1.1.8-1.8.6-.1.1-.1.1-.2.1-.4-.1-.5-.4-.6-.8-.9 0-1.8.1-2.6.4-.8.3-1.7.9-.9 1.8.6.8 1.8 1 2.7 1 .1 0 .1.2 0 .2-.5.1-1.1 0-1.6-.1.2 3.2.6 6.8-.7 9.9-.7 1.6-1.7 3.1-2.6 4.5-.5.8-1.1 1.7-1.4 2.6-.4 1.1-.1 2.7 1.3 2.9.1 0 .2.2.1.3 2.8 1.3 5.9 1.8 9 1.2 1.6-.3 3.6-.8 4.8-2.2 1.5-1.4.3-3.3-.5-4.8zM48.5 56.4c-.6-.4-.3-.8.2-1.1.1-.1.3.1.1.3-.8.6.5.6.9.7.7.1 1.4.1 2.1.1.7 0 1.4 0 2.1-.1.4-.1.8-.1 1.1-.2.2-.1.5-.1.6-.3.4-.5-.2-.6-.5-.8-.2-.1-.1-.3.1-.3 1.3.3 1.3 1.1.1 1.6s-2.5.5-3.6.5c-.7.1-2.3.1-3.2-.4zm1.8 3.9c.5.3 1.4.6 1.9.1.5-.4-.3-.9-.6-1.1-.4-.1-.9.3-.8.8.1.3-.3.4-.4.1-.2-.6.2-1.1.8-1.2.6-.1 1.3.3 1.5.8.2.5-.2.9-.7 1.1-.5.1-1.2-.1-1.7-.6-.1 0-.1-.1 0 0zm1 4.1c-.1-.1-.1-.2-.1-.3.1-.2.2-.3.4-.3.3-.1.8-.1.9.2.4.6-.7 1.4-1.1.7v-.1c0-.1-.1-.1-.1-.2zm6.8 10.8c-.9 2.3-4.3 2.5-6.3 2.5-1.4 0-2.8-.3-4.1-.7-.8-.3-2.2-.6-2.5-1.6-.2-1 .6-2.3 1.1-3.1.7-1 1.5-1.8 1.9-3V69c.6-1.3 2.4-1.4 3.6-1.5.9 0 3-.1 3.5 1v.1c.9 1.3 1.7 2.7 2.5 4.1.4.8.7 1.6.3 2.5z"/></g></g></g></svg>

